<?xml version="1.0" standalone="no"?><!DOCTYPE svg PUBLIC "-//W3C//DTD SVG 1.1//EN" "http://www.w3.org/Graphics/SVG/1.1/DTD/svg11.dtd"><svg class="icon" width="200px" height="200.00px" viewBox="0 0 1024 1024" version="1.1" xmlns="http://www.w3.org/2000/svg"><path d="M800.651654 429.954379h27.703969c1.212618 7.472182 2.424212 2.503007 2.424212 8.704242v42.27278h-30.128181v-50.977022z m143.411247-57.157791c-3.617387-3.657296-6.022157-3.657296-12.044314-3.657296h-6.041599c-9.657964 0-20.48966 8.705266-21.681812 17.390065-3.617387 2.50403-3.617387 2.50403-3.617388 8.705266v34.720779h33.726126c13.276375 0 25.319665-16.138562 25.319665-32.296567 0-11.189853-8.425903-19.953448-15.660678-24.862247zM483.678466 495.836879l21.762653-39.767726 9.658987-24.942065h-59.146075c-1.192152 4.988618-1.192152 8.6848-6.022157 8.6848-2.40477 0-3.616364-2.464121-3.616364-4.968152v-3.637854c0-2.483564 9.657964-21.126156 12.062734-24.862247l27.744901-55.906288-60.298318-1.252526c-4.830005 24.942065-51.813063 94.441952-51.813063 118.052696v4.988618c0 11.18883 7.215332 12.440333 13.237489 17.409508l40.980343 1.252527-20.470217 38.516222-2.425236 6.201235c-1.212618 2.50403-10.830673 29.830399-10.830672 32.335453v7.372921c0 17.410532 15.660678 17.410532 33.80492 17.410532 13.276375 0 40.981367 2.484587 49.427736-2.484588l24.146956-48.472991H469.20994c0-1.252527-2.40477-3.736091-2.40477-4.988618 0-6.220678 13.255908-31.082926 16.872273-36.051077v-4.89038z m-351.910908 49.705052l9.658987-115.587552H82.360288c-8.447393 0-4.830005 24.942065-4.830006 33.567513 0 14.96483-2.40477 26.094308-3.617387 38.516222 0 16.156982-2.40477 19.953448-2.40477 36.051078 0 21.126156-4.830005 24.942065-6.022156 37.284161l-1.212618 6.220678 32.533974 64.601321c15.682167-12.401448 34.960233-68.337411 34.960233-100.653421z m224.160339 121.79902v4.968151h6.0416l15.660678 2.504031 69.897953-1.232061 28.975938-60.934814c-36.171828 0-61.470003 2.50403-90.387613-4.968152l-30.188556 59.662845z m-28.975938-26.114774v-4.968152h1.192151l21.762653-45.979194c1.212618-4.988618 6.022157-9.977235 6.022157-9.977235 0-1.232061-7.233752-27.326369-8.446369-33.547048-2.385327-11.189853-2.385327-27.347858-2.385327-39.767725 0-22.37766-6.0416-52.210106-6.0416-75.79936h-59.026348c2.40477 11.168364 4.830005 45.968961 4.830005 58.409294 0 18.622126 3.616364 42.23287 4.828982 60.87444 2.405793 27.346835 16.873296 88.25095 34.95921 93.220124l2.304486-2.465144z m-144.565537-17.3696h-38.634926v4.968152c0 23.609721 19.316951 44.756343 42.172496 44.756343 19.337417 0 31.341822-2.50403 39.767725-13.673417 8.446369-7.473205 15.681144-24.842805 15.681144-39.788192V349.185844h-58.987462v274.670733z m477.257731-192.650695c3.617387 0 4.830005-1.251503 4.830006-4.987594v-57.078996h-139.814326v62.06659h40.980343v181.441399h-55.369052c-7.233752 0-30.129204 50.957579-32.533974 60.894905h206.074426v-60.894905h-59.124586V431.205882h34.957163z m42.173519-1.251503c4.828982 1.251503-1.213641 1.251503 4.828982 1.251503h36.171827v49.725519h-59.0857v60.874439h59.066257v131.735323h57.853639V541.80584l86.770226 2.484587c6.022157 2.50403 13.255908 4.988618 13.255909 17.409508v59.652612H841.631998c0 31.082926 22.895453 52.189639 54.215785 52.189639 43.405579 0 63.875796-16.138562 63.875796-62.126966v-65.872266c0-34.799574-20.470217-64.611553-50.599421-64.611553h-19.316951v-36.051078c0-45.988404-24.167422-75.79936-66.300009-75.79936h-22.855544V349.185844h-56.642045v19.953448h-42.133609l-0.058328 60.815087z m0 0" /></svg>